<mxfile host="app.diagrams.net" agent="Mozilla/5.0 (Windows NT 10.0; Win64; x64) AppleWebKit/537.36 (KHTML, like Gecko) Chrome/128.0.0.0 Safari/537.36" version="24.7.16">
  <diagram name="Page-1" id="k7sj7SFi0VszRTvt5pt7">
    <mxGraphModel>
      <root>
        <mxCell id="0" />
        <mxCell id="1" parent="0" />
        <mxCell id="2" value="" style="ellipse;aspect=fixed;strokeWidth=2;whiteSpace=wrap;" vertex="1" parent="1">
          <mxGeometry x="593" y="8" width="15" height="15" as="geometry" />
        </mxCell>
        <mxCell id="3" value="" style="ellipse;aspect=fixed;strokeWidth=2;whiteSpace=wrap;" vertex="1" parent="1">
          <mxGeometry x="593" y="73" width="15" height="15" as="geometry" />
        </mxCell>
        <mxCell id="4" value="" style="ellipse;aspect=fixed;strokeWidth=2;whiteSpace=wrap;" vertex="1" parent="1">
          <mxGeometry x="593" y="138" width="15" height="15" as="geometry" />
        </mxCell>
        <mxCell id="5" value="" style="ellipse;aspect=fixed;strokeWidth=2;whiteSpace=wrap;" vertex="1" parent="1">
          <mxGeometry x="593" y="203" width="15" height="15" as="geometry" />
        </mxCell>
        <mxCell id="6" value="E" style="ellipse;aspect=fixed;strokeWidth=2;whiteSpace=wrap;" vertex="1" parent="1">
          <mxGeometry x="264" y="268" width="24" height="24" as="geometry" />
        </mxCell>
        <mxCell id="7" value="" style="ellipse;aspect=fixed;strokeWidth=2;whiteSpace=wrap;" vertex="1" parent="1">
          <mxGeometry x="593" y="272" width="15" height="15" as="geometry" />
        </mxCell>
        <mxCell id="8" value="" style="ellipse;aspect=fixed;strokeWidth=2;whiteSpace=wrap;" vertex="1" parent="1">
          <mxGeometry x="788" y="272" width="15" height="15" as="geometry" />
        </mxCell>
        <mxCell id="9" value="" style="ellipse;aspect=fixed;strokeWidth=2;whiteSpace=wrap;" vertex="1" parent="1">
          <mxGeometry x="40" y="342" width="15" height="15" as="geometry" />
        </mxCell>
        <mxCell id="10" value="" style="ellipse;aspect=fixed;strokeWidth=2;whiteSpace=wrap;" vertex="1" parent="1">
          <mxGeometry x="235" y="342" width="15" height="15" as="geometry" />
        </mxCell>
        <mxCell id="11" value="" style="ellipse;aspect=fixed;strokeWidth=2;whiteSpace=wrap;" vertex="1" parent="1">
          <mxGeometry x="430" y="342" width="15" height="15" as="geometry" />
        </mxCell>
        <mxCell id="12" value="" style="ellipse;aspect=fixed;strokeWidth=2;whiteSpace=wrap;" vertex="1" parent="1">
          <mxGeometry x="495" y="342" width="15" height="15" as="geometry" />
        </mxCell>
        <mxCell id="13" value="" style="ellipse;aspect=fixed;strokeWidth=2;whiteSpace=wrap;" vertex="1" parent="1">
          <mxGeometry x="560" y="342" width="15" height="15" as="geometry" />
        </mxCell>
        <mxCell id="14" value="" style="ellipse;aspect=fixed;strokeWidth=2;whiteSpace=wrap;" vertex="1" parent="1">
          <mxGeometry x="625" y="342" width="15" height="15" as="geometry" />
        </mxCell>
        <mxCell id="15" value="" style="ellipse;aspect=fixed;strokeWidth=2;whiteSpace=wrap;" vertex="1" parent="1">
          <mxGeometry x="690" y="342" width="15" height="15" as="geometry" />
        </mxCell>
        <mxCell id="16" value="" style="ellipse;aspect=fixed;strokeWidth=2;whiteSpace=wrap;" vertex="1" parent="1">
          <mxGeometry x="755" y="342" width="15" height="15" as="geometry" />
        </mxCell>
        <mxCell id="17" value="" style="ellipse;aspect=fixed;strokeWidth=2;whiteSpace=wrap;" vertex="1" parent="1">
          <mxGeometry x="820" y="342" width="15" height="15" as="geometry" />
        </mxCell>
        <mxCell id="18" value="" style="ellipse;aspect=fixed;strokeWidth=2;whiteSpace=wrap;" vertex="1" parent="1">
          <mxGeometry x="8" y="407" width="15" height="15" as="geometry" />
        </mxCell>
        <mxCell id="19" value="" style="ellipse;aspect=fixed;strokeWidth=2;whiteSpace=wrap;" vertex="1" parent="1">
          <mxGeometry x="73" y="407" width="15" height="15" as="geometry" />
        </mxCell>
        <mxCell id="20" value="" style="ellipse;aspect=fixed;strokeWidth=2;whiteSpace=wrap;" vertex="1" parent="1">
          <mxGeometry x="138" y="407" width="15" height="15" as="geometry" />
        </mxCell>
        <mxCell id="21" value="" style="ellipse;aspect=fixed;strokeWidth=2;whiteSpace=wrap;" vertex="1" parent="1">
          <mxGeometry x="203" y="407" width="15" height="15" as="geometry" />
        </mxCell>
        <mxCell id="22" value="" style="ellipse;aspect=fixed;strokeWidth=2;whiteSpace=wrap;" vertex="1" parent="1">
          <mxGeometry x="268" y="407" width="15" height="15" as="geometry" />
        </mxCell>
        <mxCell id="23" value="" style="ellipse;aspect=fixed;strokeWidth=2;whiteSpace=wrap;" vertex="1" parent="1">
          <mxGeometry x="333" y="407" width="15" height="15" as="geometry" />
        </mxCell>
        <mxCell id="24" value="" style="ellipse;aspect=fixed;strokeWidth=2;whiteSpace=wrap;" vertex="1" parent="1">
          <mxGeometry x="398" y="407" width="15" height="15" as="geometry" />
        </mxCell>
        <mxCell id="25" value="" style="ellipse;aspect=fixed;strokeWidth=2;whiteSpace=wrap;" vertex="1" parent="1">
          <mxGeometry x="463" y="407" width="15" height="15" as="geometry" />
        </mxCell>
        <mxCell id="26" value="" style="ellipse;aspect=fixed;strokeWidth=2;whiteSpace=wrap;" vertex="1" parent="1">
          <mxGeometry x="528" y="407" width="15" height="15" as="geometry" />
        </mxCell>
        <mxCell id="27" value="" style="curved=1;startArrow=none;endArrow=block;exitX=0.5;exitY=1;entryX=0.5;entryY=0;" edge="1" parent="1" source="2" target="3">
          <mxGeometry relative="1" as="geometry">
            <Array as="points" />
          </mxGeometry>
        </mxCell>
        <mxCell id="28" value="" style="curved=1;startArrow=none;endArrow=block;exitX=0.5;exitY=1;entryX=0.5;entryY=0;" edge="1" parent="1" source="3" target="4">
          <mxGeometry relative="1" as="geometry">
            <Array as="points" />
          </mxGeometry>
        </mxCell>
        <mxCell id="29" value="" style="curved=1;startArrow=none;endArrow=block;exitX=0.5;exitY=1;entryX=0.5;entryY=0;" edge="1" parent="1" source="4" target="5">
          <mxGeometry relative="1" as="geometry">
            <Array as="points" />
          </mxGeometry>
        </mxCell>
        <mxCell id="30" value="" style="curved=1;startArrow=none;endArrow=block;exitX=0;exitY=0.55;entryX=0.48;entryY=0;" edge="1" parent="1" source="5" target="6">
          <mxGeometry relative="1" as="geometry">
            <Array as="points">
              <mxPoint x="275" y="243" />
            </Array>
          </mxGeometry>
        </mxCell>
        <mxCell id="31" value="" style="curved=1;startArrow=none;endArrow=block;exitX=0.5;exitY=1;entryX=0.5;entryY=0.02;" edge="1" parent="1" source="5" target="7">
          <mxGeometry relative="1" as="geometry">
            <Array as="points" />
          </mxGeometry>
        </mxCell>
        <mxCell id="32" value="" style="curved=1;startArrow=none;endArrow=block;exitX=1;exitY=0.58;entryX=0.5;entryY=0.02;" edge="1" parent="1" source="5" target="8">
          <mxGeometry relative="1" as="geometry">
            <Array as="points">
              <mxPoint x="795" y="243" />
            </Array>
          </mxGeometry>
        </mxCell>
        <mxCell id="33" value="" style="curved=1;startArrow=none;endArrow=block;exitX=-0.01;exitY=0.57;entryX=0.53;entryY=-0.03;" edge="1" parent="1" source="6" target="9">
          <mxGeometry relative="1" as="geometry">
            <Array as="points">
              <mxPoint x="48" y="317" />
            </Array>
          </mxGeometry>
        </mxCell>
        <mxCell id="34" value="" style="curved=1;startArrow=none;endArrow=block;exitX=0.05;exitY=0.98;entryX=0.53;entryY=-0.03;" edge="1" parent="1" source="6" target="10">
          <mxGeometry relative="1" as="geometry">
            <Array as="points">
              <mxPoint x="243" y="317" />
            </Array>
          </mxGeometry>
        </mxCell>
        <mxCell id="35" value="" style="curved=1;startArrow=none;endArrow=block;exitX=0.97;exitY=0.6;entryX=0.53;entryY=-0.03;" edge="1" parent="1" source="6" target="11">
          <mxGeometry relative="1" as="geometry">
            <Array as="points">
              <mxPoint x="438" y="317" />
            </Array>
          </mxGeometry>
        </mxCell>
        <mxCell id="36" value="" style="curved=1;startArrow=none;endArrow=block;exitX=0;exitY=0.71;entryX=0.53;entryY=-0.03;" edge="1" parent="1" source="7" target="12">
          <mxGeometry relative="1" as="geometry">
            <Array as="points">
              <mxPoint x="503" y="317" />
            </Array>
          </mxGeometry>
        </mxCell>
        <mxCell id="37" value="" style="curved=1;startArrow=none;endArrow=block;exitX=0.06;exitY=1.02;entryX=0.53;entryY=-0.03;" edge="1" parent="1" source="7" target="13">
          <mxGeometry relative="1" as="geometry">
            <Array as="points">
              <mxPoint x="568" y="317" />
            </Array>
          </mxGeometry>
        </mxCell>
        <mxCell id="38" value="" style="curved=1;startArrow=none;endArrow=block;exitX=0.94;exitY=1.02;entryX=0.53;entryY=-0.03;" edge="1" parent="1" source="7" target="14">
          <mxGeometry relative="1" as="geometry">
            <Array as="points">
              <mxPoint x="633" y="317" />
            </Array>
          </mxGeometry>
        </mxCell>
        <mxCell id="39" value="" style="curved=1;startArrow=none;endArrow=block;exitX=0;exitY=0.71;entryX=0.53;entryY=-0.03;" edge="1" parent="1" source="8" target="15">
          <mxGeometry relative="1" as="geometry">
            <Array as="points">
              <mxPoint x="698" y="317" />
            </Array>
          </mxGeometry>
        </mxCell>
        <mxCell id="40" value="" style="curved=1;startArrow=none;endArrow=block;exitX=0.06;exitY=1.02;entryX=0.53;entryY=-0.03;" edge="1" parent="1" source="8" target="16">
          <mxGeometry relative="1" as="geometry">
            <Array as="points">
              <mxPoint x="763" y="317" />
            </Array>
          </mxGeometry>
        </mxCell>
        <mxCell id="41" value="" style="curved=1;startArrow=none;endArrow=block;exitX=0.94;exitY=1.02;entryX=0.53;entryY=-0.03;" edge="1" parent="1" source="8" target="17">
          <mxGeometry relative="1" as="geometry">
            <Array as="points">
              <mxPoint x="828" y="317" />
            </Array>
          </mxGeometry>
        </mxCell>
        <mxCell id="42" value="" style="curved=1;startArrow=none;endArrow=block;exitX=0.03;exitY=0.97;entryX=0.5;entryY=-0.03;" edge="1" parent="1" source="9" target="18">
          <mxGeometry relative="1" as="geometry">
            <Array as="points">
              <mxPoint x="15" y="382" />
            </Array>
          </mxGeometry>
        </mxCell>
        <mxCell id="43" value="" style="curved=1;startArrow=none;endArrow=block;exitX=1.03;exitY=0.97;entryX=0.5;entryY=-0.03;" edge="1" parent="1" source="9" target="19">
          <mxGeometry relative="1" as="geometry">
            <Array as="points">
              <mxPoint x="80" y="382" />
            </Array>
          </mxGeometry>
        </mxCell>
        <mxCell id="44" value="" style="curved=1;startArrow=none;endArrow=block;exitX=1.03;exitY=0.64;entryX=0.5;entryY=-0.03;" edge="1" parent="1" source="9" target="20">
          <mxGeometry relative="1" as="geometry">
            <Array as="points">
              <mxPoint x="145" y="382" />
            </Array>
          </mxGeometry>
        </mxCell>
        <mxCell id="45" value="" style="curved=1;startArrow=none;endArrow=block;exitX=0.03;exitY=0.97;entryX=0.5;entryY=-0.03;" edge="1" parent="1" source="10" target="21">
          <mxGeometry relative="1" as="geometry">
            <Array as="points">
              <mxPoint x="210" y="382" />
            </Array>
          </mxGeometry>
        </mxCell>
        <mxCell id="46" value="" style="curved=1;startArrow=none;endArrow=block;exitX=1.03;exitY=0.97;entryX=0.5;entryY=-0.03;" edge="1" parent="1" source="10" target="22">
          <mxGeometry relative="1" as="geometry">
            <Array as="points">
              <mxPoint x="275" y="382" />
            </Array>
          </mxGeometry>
        </mxCell>
        <mxCell id="47" value="" style="curved=1;startArrow=none;endArrow=block;exitX=1.03;exitY=0.64;entryX=0.5;entryY=-0.03;" edge="1" parent="1" source="10" target="23">
          <mxGeometry relative="1" as="geometry">
            <Array as="points">
              <mxPoint x="340" y="382" />
            </Array>
          </mxGeometry>
        </mxCell>
        <mxCell id="48" value="" style="curved=1;startArrow=none;endArrow=block;exitX=0.03;exitY=0.97;entryX=0.5;entryY=-0.03;" edge="1" parent="1" source="11" target="24">
          <mxGeometry relative="1" as="geometry">
            <Array as="points">
              <mxPoint x="405" y="382" />
            </Array>
          </mxGeometry>
        </mxCell>
        <mxCell id="49" value="" style="curved=1;startArrow=none;endArrow=block;exitX=1.03;exitY=0.97;entryX=0.5;entryY=-0.03;" edge="1" parent="1" source="11" target="25">
          <mxGeometry relative="1" as="geometry">
            <Array as="points">
              <mxPoint x="470" y="382" />
            </Array>
          </mxGeometry>
        </mxCell>
        <mxCell id="50" value="" style="curved=1;startArrow=none;endArrow=block;exitX=1.03;exitY=0.64;entryX=0.5;entryY=-0.03;" edge="1" parent="1" source="11" target="26">
          <mxGeometry relative="1" as="geometry">
            <Array as="points">
              <mxPoint x="535" y="382" />
            </Array>
          </mxGeometry>
        </mxCell>
      </root>
    </mxGraphModel>
  </diagram>
</mxfile>
